# xmcd
#
# Track frame offsets: 
#        150
#        18975
#        40987
#        58405
#        74680
#        90900
#        110812
#        125312
#        140887
#        160112
#
# Disc length: 2430 seconds
#
# Revision: 1
# Processed by: cddbd v1.5.2PL0 Copyright (c) Steve Scherf et al.
# Submitted via: ExactAudioCopyFreeDBPlugin 1.0
#
DISCID=91097c0a
DTITLE=野本直美 - THE FIRE
DYEAR=1987
DGENRE=JPop
TTITLE0=バケツいっぱいの雨
TTITLE1=Crossroad Again
TTITLE2=Dont Be Afraid
TTITLE3=Wild Life
TTITLE4=Joe
TTITLE5=The Fire
TTITLE6=真夜中の3つのルール
TTITLE7=ふちなし帽と皮ジャンパー
TTITLE8=Bye Byeブルース
TTITLE9=１１月の少年
EXTD=YEAR: 1985
EXTT0=
EXTT1=
EXTT2=
EXTT3=
EXTT4=
EXTT5=
EXTT6=
EXTT7=
EXTT8=
EXTT9=
PLAYORDER=
